# xmcd
#
# Track frame offsets:
#	150
#	9930
#	21847
#	32060
#	41035
#	49898
#	59781
#	71408
#	81045
#	93447
#	103829
#	115724
#
# Disc length: 1700 seconds
#
# Revision: 1
# Processed by: cddbd v1.5.1PL0 Copyright (c) Steve Scherf et al.
# Submitted via: audiograbber 1.83.01
#
DISCID=9a06a20c
DTITLE=Warner Mack - The Country Touch
DYEAR=1900
DGENRE=
TTITLE0=Sittin' On A Rock (Crying In A Creek)
TTITLE1=Hurt (Is The Name Of The Game)
TTITLE2=I'm Shipping Out
TTITLE3=First Thing Every Morning
TTITLE4=One Mile More
TTITLE5=A Girl Like You
TTITLE6=Talkin' To The Wall
TTITLE7=This Little Hurt
TTITLE8=I Heard You Asked About Me
TTITLE9=Alla My Love
TTITLE10=The Way It Fels To Die
TTITLE11=Thanks A Lot
EXTD=
EXTT0=
EXTT1=
EXTT2=
EXTT3=
EXTT4=
EXTT5=
EXTT6=
EXTT7=
EXTT8=
EXTT9=
EXTT10=
EXTT11=
PLAYORDER=
